/* XPM */
static char * icon_xpm[] = {
"32 32 297 2",
"  	c None",
". 	c #8D8DFF",
"+ 	c #8989FF",
"@ 	c #7C7CFF",
"# 	c #7B7BFF",
"$ 	c #7E7EFF",
"% 	c #8181FF",
"& 	c #8C8CFF",
"* 	c #9898FF",
"= 	c #9292FF",
"- 	c #8787FF",
"; 	c #8888FF",
"> 	c #9595FF",
", 	c #A7A7FE",
"' 	c #9B9BFF",
") 	c #8F8FFF",
"! 	c #9090FF",
"~ 	c #8E8EFF",
"{ 	c #A1A1FE",
"] 	c #8A8AFF",
"^ 	c #8383FF",
"/ 	c #8282FF",
"( 	c #8585FF",
"_ 	c #9696FE",
": 	c #9E9EFE",
"< 	c #8080FF",
"[ 	c #7F7FFF",
"} 	c #8484FF",
"| 	c #A4A4FE",
"1 	c #8B8BFF",
"2 	c #9191FF",
"3 	c #9494FF",
"4 	c #A2A2FF",
"5 	c #9D9DFF",
"6 	c #9797FF",
"7 	c #8686FF",
"8 	c #9393FF",
"9 	c #9B9BFE",
"0 	c #9A9AFF",
"a 	c #A5A5FE",
"b 	c #A8A8FF",
"c 	c #ACACFE",
"d 	c #9F9FFF",
"e 	c #A6A6FF",
"f 	c #9C9CFF",
"g 	c #A5A5FF",
"h 	c #A3A3FF",
"i 	c #9696FF",
"j 	c #9D9DFE",
"k 	c #9C9CFE",
"l 	c #A6A6FE",
"m 	c #A0A0FF",
"n 	c #A7A7FF",
"o 	c #A1A1FF",
"p 	c #ADADFF",
"q 	c #BBBBFE",
"r 	c #AFAFFF",
"s 	c #B4B4FE",
"t 	c #ABABFF",
"u 	c #B6B6FE",
"v 	c #9F9FFE",
"w 	c #B2B2FD",
"x 	c #7D7DFF",
"y 	c #A0A0FE",
"z 	c #B1B1FE",
"A 	c #B1B1FF",
"B 	c #B2B2FF",
"C 	c #C3C3FE",
"D 	c #D0D0FA",
"E 	c #CECEFD",
"F 	c #C2C2FF",
"G 	c #AAAAFF",
"H 	c #ABABFE",
"I 	c #A9A9FE",
"J 	c #B2B2FE",
"K 	c #B5B5FE",
"L 	c #A9A9FF",
"M 	c #C1C1FE",
"N 	c #D7D7FF",
"O 	c #F4F0D0",
"P 	c #F4EFC3",
"Q 	c #E6E5F1",
"R 	c #CBCBFD",
"S 	c #BDBDFE",
"T 	c #A4A4FF",
"U 	c #ADADFE",
"V 	c #AAAAFE",
"W 	c #9999FF",
"X 	c #B3B3FE",
"Y 	c #C0C0FE",
"Z 	c #B6B6FF",
"` 	c #BEBEFE",
" .	c #CACAFE",
"..	c #D9D9FE",
"+.	c #EBEBFC",
"@.	c #FDFAC7",
"#.	c #F5DA5F",
"$.	c #FAEFA4",
"%.	c #E6E7FA",
"&.	c #CECEFE",
"*.	c #BBBBFF",
"=.	c #B4B4FF",
"-.	c #BCBCFE",
";.	c #9E9EFF",
">.	c #ACACFF",
",.	c #B3B3FF",
"'.	c #C2C2FE",
").	c #C9C9FE",
"!.	c #DADAFE",
"~.	c #EBEBFD",
"{.	c #FAF6D9",
"].	c #E1C670",
"^.	c #8E672F",
"/.	c #DBC06A",
"(.	c #F7F4E1",
"_.	c #E0E0FF",
":.	c #C6C6FE",
"<.	c #B5B5FF",
"[.	c #B9B9FF",
"}.	c #C8C8FE",
"|.	c #E6E6FA",
"1.	c #F6F6F0",
"2.	c #FDFDE8",
"3.	c #FFFAAE",
"4.	c #836530",
"5.	c #040003",
"6.	c #7E6230",
"7.	c #FFF9B8",
"8.	c #F8F8F2",
"9.	c #EBECFA",
"0.	c #DBDBFA",
"a.	c #C1C1FF",
"b.	c #BFBFFE",
"c.	c #BABAFF",
"d.	c #CDCDFE",
"e.	c #DBDBFE",
"f.	c #EAEAFD",
"g.	c #F6EBC0",
"h.	c #DDBC72",
"i.	c #E3D37B",
"j.	c #B6A250",
"k.	c #634A1B",
"l.	c #040005",
"m.	c #5C461B",
"n.	c #B4A051",
"o.	c #E5D793",
"p.	c #F8EDA7",
"q.	c #F2E3AD",
"r.	c #D7D7FC",
"s.	c #A2A2FE",
"t.	c #CECEFF",
"u.	c #D4D4FE",
"v.	c #DEDEFE",
"w.	c #E1E1FE",
"x.	c #EEEEFC",
"y.	c #FAFBEF",
"z.	c #FAEF9D",
"A.	c #775628",
"B.	c #3C2912",
"C.	c #0F0805",
"D.	c #030101",
"E.	c #010101",
"F.	c #020101",
"G.	c #0B0504",
"H.	c #53401A",
"I.	c #6E5226",
"J.	c #DDC27C",
"K.	c #E5E5F9",
"L.	c #C3C4FF",
"M.	c #B9B9FE",
"N.	c #C5C5FE",
"O.	c #DADAFC",
"P.	c #EFEDE6",
"Q.	c #F2F3F4",
"R.	c #F5F6F4",
"S.	c #F9F9F2",
"T.	c #FDFDED",
"U.	c #FBF5BC",
"V.	c #AD904C",
"W.	c #31230F",
"X.	c #000000",
"Y.	c #E1D489",
"Z.	c #F0EFEE",
"`.	c #CDCDFF",
" +	c #B7B7FF",
".+	c #AFAFFE",
"++	c #BCBCFF",
"@+	c #D5D5FE",
"#+	c #EFEFF6",
"$+	c #FBEF95",
"%+	c #F8EA95",
"&+	c #F8E78D",
"*+	c #F7E998",
"=+	c #FFFFB5",
"-+	c #E7DC7E",
";+	c #443018",
">+	c #070402",
",+	c #806834",
"'+	c #EEE1C2",
")+	c #D1D2FF",
"!+	c #B8B8FF",
"~+	c #CBCBFE",
"{+	c #ECECFB",
"]+	c #FBFCEA",
"^+	c #FCF18C",
"/+	c #9D742F",
"(+	c #6A4B20",
"_+	c #634523",
":+	c #BBA547",
"<+	c #B6A435",
"[+	c #0C0606",
"}+	c #64532A",
"|+	c #F1EAD0",
"1+	c #D5D6FF",
"2+	c #C8C8FF",
"3+	c #DBDCFE",
"4+	c #E6E6FD",
"5+	c #F1F1FB",
"6+	c #FCFBDC",
"7+	c #FFF492",
"8+	c #D3B44B",
"9+	c #2C1B0F",
"0+	c #201509",
"a+	c #563212",
"b+	c #010001",
"c+	c #786944",
"d+	c #F2EEE6",
"e+	c #B0B0FF",
"f+	c #D1D1F9",
"g+	c #EEEEE8",
"h+	c #F2EEBE",
"i+	c #F9F4B6",
"j+	c #FEF9AE",
"k+	c #FAE77B",
"l+	c #A27A32",
"m+	c #3F2715",
"n+	c #030102",
"o+	c #060308",
"p+	c #2D2710",
"q+	c #D4CD99",
"r+	c #F1F1FA",
"s+	c #D2D2FE",
"t+	c #B8B8FE",
"u+	c #B0B0FE",
"v+	c #D1D0F9",
"w+	c #F2EEBF",
"x+	c #F9F5B6",
"y+	c #A27B32",
"z+	c #402715",
"A+	c #070308",
"B+	c #2C2710",
"C+	c #D3CC99",
"D+	c #C7C7FF",
"E+	c #D3B54B",
"F+	c #211509",
"G+	c #573212",
"H+	c #786943",
"I+	c #F2EEE5",
"J+	c #ECECFC",
"K+	c #9E742F",
"L+	c #6B4C20",
"M+	c #644623",
"N+	c #BCA648",
"O+	c #F9EA95",
"P+	c #F8E88D",
"Q+	c #F7E999",
"R+	c #FFFFB6",
"S+	c #453018",
"T+	c #816934",
"U+	c #EEE2C2",
"V+	c #F2F3F5",
"W+	c #F5F5F4",
"X+	c #F9F9F3",
"Y+	c #FDFDEE",
"Z+	c #AE904C",
"`+	c #CDCEFF",
" @	c #3C2A12",
".@	c #100805",
"+@	c #0C0504",
"@@	c #53411B",
"#@	c #6F5226",
"$@	c #C3C3FF",
"%@	c #DEBC72",
"&@	c #E3D47B",
"*@	c #B7A350",
"=@	c #634B1B",
"-@	c #5D471B",
";@	c #B5A152",
">@	c #F8EDA8",
",@	c #E1C770",
"'@	c #8F682F",
")@	c #DBC16B",
"!@	c #EAEBFD",
"~@	c #F6DA60",
"{@	c #F4EFC4",
"]@	c #AEAEFF",
"^@	c #A8A8FE",
"  . + @ # # @ $ % & * = + - ; & > , ' ) ! . ~ { ' ] ^ / - / (   ",
"_ : ; < $ [ [ < } ! | ' & 1 2 2 3 , 4 > 5 > 6 | = + 7 - 8 ] ) 9 ",
"& > 6 - ( . ( ^ 7 & 0 a 3 ! 5 5 * b c d e f g h = 2 1 1 i j k . ",
"[ 7 6 i ~ i + - ; 1 3 l m i 5 n o p q r s t u h ' v 2 2 { w ' & ",
"x / 1 y , 6 & 1 2 = 8 4 c o m z A B C D E F q G H d 6 d I d 3 8 ",
"$ + 8 y J 4 = ! 0 m * m K u L A M C N O P Q R S s T n U 5 2 ] 7 ",
"[ - ) = m V f > W n o T X Y Z `  ...+.@.#.$.%.&.*.=.-.e 6 = & 7 ",
"< } ; & 8 h U d ;.G s >.,.'.).&.!.~.{.].^./.(._.&.:.<.g m m ! + ",
"( 7 ] ! 8 ' U K L >.S [.'.}.!.|.1.2.3.4.5.6.7.8.9.0.a.K L 0 = 2 ",
"8 1 ~ ;.5 f t b.Z c.C d.&.e.f.g.h.i.j.k.l.m.n.o.p.q.r.[.b o o a ",
"s.* = 0 b L t [.).t.u.v.w.x.y.z.A.B.C.D.E.F.G.H.I.J.K.L.q K , ' ",
"0 a h d b M.[.N.O.P.Q.R.S.T.U.V.W.X.X.X.X.X.X.X.W.Y.Z.`. +b 0 8 ",
"! 0 .+s r ++d.@+#+$+%+&+*+=+-+;+X.X.X.X.X.X.X.X.>+,+'+)+!+t 4 m ",
"' ;.L S '.~+..{+]+^+/+(+_+:+<+[+X.X.X.X.X.X.X.X.X.}+|+1+` J h ' ",
"0 b  +2+3+4+5+6+7+8+9+X.X.0+a+b+X.X.X.X.X.X.X.X.X.c+d+)+c.b d 6 ",
"T e+f+g+h+i+j+k+l+m+n+X.X.b+o+X.X.X.X.X.X.X.X.X.p+q+r+s+b.t+u+b ",
"T e+v+g+w+x+j+k+y+z+n+X.X.b+A+X.X.X.X.X.X.X.X.X.B+C+r+s+b.t+u+b ",
"0 b  +D+3+4+5+6+7+E+9+X.X.F+G+b+X.X.X.X.X.X.X.X.X.H+I+)+c.b d 6 ",
"' ;.L S M ~+..J+]+^+K+L+M+N+<+[+X.X.X.X.X.X.X.X.X.}+|+1+` J h ' ",
"! 0 .+s r ++d.@+#+$+O+P+Q+R+-+S+X.X.X.X.X.X.X.X.>+T+U+)+!+t 4 m ",
"0 a h d b M.[.N.O.P.V+W+X+Y+U.Z+W.X.X.X.X.X.X.X.W.Y.Z.`. +b 0 8 ",
"s.* = 0 b L t [.).`+u.v.w.x.y.z.A. @.@n+E.D.+@@@#@J.K.$@q K , ' ",
"8 1 ~ ;.5 f t b.Z c.C d.&.e.f.g.%@&@*@=@l.-@;@o.>@q.r.c.b o o a ",
"( 7 ] ! 8 ' U K L >.S [.'.}.!.|.1.2.3.4.5.6.7.8.9.0.M K L 0 = 2 ",
"< } ; & 8 h U d ;.G s >.,.'.).&.!.~.{.,@'@)@(._.&.:.<.g m m 2 + ",
"[ ; ) = m V f > W n o T X Y Z `  ...!@@.~@$.%.&.*.=.-.e 6 = & 7 ",
"$ + 8 y J 4 = ! 0 m * m K u L A M C N O {@Q R S s T n U 5 2 ] - ",
"x / 1 y , 6 & 1 2 = 8 4 c o m z A B C D E F q L H d 6 ;.I d 3 8 ",
"[ - 6 i ~ i + - ; 1 3 l m i 5 n o p q ]@s t u h ' v 2 2 { w ' & ",
"& > 6 - ( . ( ^ 7 & 0 | 3 ! 5 f * b c d e f g h = 2 1 1 i j k . ",
"_ : ; < $ [ [ < } ! | ' & 1 2 2 3 , 4 > 5 > 6 | = + 7 - 8 ] ) 9 ",
"  . + @ # # @ $ % 1 * = + - ; & > ^@' ) ! . ~ { ' ] ^ / - / }   "};
