/* XPM */
static char * icon_xpm[] = {
"32 32 285 2",
"  	c #9494FE",
". 	c #8888FE",
"+ 	c #8A8AFE",
"@ 	c #7C7CFE",
"# 	c #7B7BFF",
"$ 	c #7C7CFF",
"% 	c #7E7EFF",
"& 	c #8181FF",
"* 	c #9898FE",
"= 	c #9292FE",
"- 	c #8787FE",
"; 	c #8686FF",
"> 	c #8888FF",
", 	c #8C8CFF",
"' 	c #9595FE",
") 	c #AAAAFE",
"! 	c #9A9AFE",
"~ 	c #8F8FFF",
"{ 	c #8E8EFE",
"] 	c #8B8BFE",
"^ 	c #8D8DFE",
"/ 	c #A1A1FE",
"( 	c #8282FF",
"_ 	c #8686FE",
": 	c #8181FE",
"< 	c #8383FE",
"[ 	c #A2A2FE",
"} 	c #8080FF",
"| 	c #7F7FFE",
"1 	c #8484FE",
"2 	c #A7A7FE",
"3 	c #9999FE",
"4 	c #8C8CFE",
"5 	c #9191FE",
"6 	c #9090FE",
"7 	c #A9A9FE",
"8 	c #A0A0FE",
"9 	c #8989FF",
"0 	c #9696FE",
"a 	c #8989FE",
"b 	c #9D9DFE",
"c 	c #9393FE",
"d 	c #8383FF",
"e 	c #8585FE",
"f 	c #9797FE",
"g 	c #A6A6FE",
"h 	c #9E9EFE",
"i 	c #9B9BFE",
"j 	c #A5A5FE",
"k 	c #ABABFE",
"l 	c #A8A8FE",
"m 	c #A4A4FE",
"n 	c #A3A3FE",
"o 	c #8080FE",
"p 	c #8787FF",
"q 	c #8B8BFF",
"r 	c #9F9FFE",
"s 	c #ADADFE",
"t 	c #BEBEFD",
"u 	c #B7B7FE",
"v 	c #BABAFD",
"w 	c #B8B8FD",
"x 	c #AEAEFE",
"y 	c #B2B2FE",
"z 	c #B0B0FE",
"A 	c #B4B4FE",
"B 	c #C4C4FE",
"C 	c #CECEFB",
"D 	c #CDCDFD",
"E 	c #C0C0FE",
"F 	c #BABAFE",
"G 	c #ACACFE",
"H 	c #7E7EFE",
"I 	c #B5B5FD",
"J 	c #9090FF",
"K 	c #B5B5FE",
"L 	c #B6B6FE",
"M 	c #AFAFFE",
"N 	c #C3C3FE",
"O 	c #C1C1FE",
"P 	c #D7D7FD",
"Q 	c #F7F4D0",
"R 	c #F6F1CA",
"S 	c #E6E6F4",
"T 	c #CBCBFD",
"U 	c #BCBCFE",
"V 	c #9C9CFE",
"W 	c #8A8AFF",
"X 	c #B1B1FE",
"Y 	c #C2C2FE",
"Z 	c #C9C9FD",
"` 	c #D8D8FD",
" .	c #EAEAFB",
"..	c #FDFBD0",
"+.	c #F3D455",
"@.	c #FAEE98",
"#.	c #E5E5FB",
"$.	c #CFCFFD",
"%.	c #C0C0FD",
"&.	c #8484FF",
"*.	c #B3B3FE",
"=.	c #D9D9FD",
"-.	c #EBEBFC",
";.	c #FAF8DC",
">.	c #E9CC69",
",.	c #80552E",
"'.	c #E9D16B",
").	c #F7F5E6",
"!.	c #DFDFFD",
"~.	c #C8C8FD",
"{.	c #8F8FFE",
"].	c #BFBFFE",
"^.	c #C5C5FE",
"/.	c #DBDBFD",
"(.	c #F5F5F3",
"_.	c #FCFCE8",
":.	c #FDFBB4",
"<.	c #78572E",
"[.	c #030102",
"}.	c #71512C",
"|.	c #FCFAC0",
"1.	c #F7F7F2",
"2.	c #EAEAFA",
"3.	c #DADAFB",
"4.	c #C2C2FD",
"5.	c #BDBDFE",
"6.	c #EAEAFC",
"7.	c #F8EFBD",
"8.	c #DEB666",
"9.	c #EEE37F",
"0.	c #BDA64D",
"a.	c #75521A",
"b.	c #050204",
"c.	c #6D4D1B",
"d.	c #BFAA51",
"e.	c #E9DC94",
"f.	c #F9F2B0",
"g.	c #F4E6A6",
"h.	c #D7D7FC",
"i.	c #B8B8FE",
"j.	c #D2D2FD",
"k.	c #E0E0FD",
"l.	c #E1E1FD",
"m.	c #EEEEFB",
"n.	c #FAFAF0",
"o.	c #FAF5A5",
"p.	c #634427",
"q.	c #3E2813",
"r.	c #070403",
"s.	c #010000",
"t.	c #000000",
"u.	c #070303",
"v.	c #533E19",
"w.	c #523920",
"x.	c #E2C373",
"y.	c #E3E3FA",
"z.	c #BBBBFE",
"A.	c #C7C7FE",
"B.	c #F0EFE8",
"C.	c #F2F2F6",
"D.	c #F6F6F5",
"E.	c #F9F8F3",
"F.	c #FCFCED",
"G.	c #FBF7BE",
"H.	c #A47F44",
"I.	c #2A1B0D",
"J.	c #30210F",
"K.	c #EDE594",
"L.	c #EFEFF2",
"M.	c #CCCCFD",
"N.	c #B9B9FE",
"O.	c #D1D1FD",
"P.	c #D3D3FD",
"Q.	c #EFEFF8",
"R.	c #FAEB83",
"S.	c #F9EE9B",
"T.	c #F9EA8A",
"U.	c #F9F19F",
"V.	c #FEFDB8",
"W.	c #EDE380",
"X.	c #3F2916",
"Y.	c #030101",
"Z.	c #74592C",
"`.	c #EFE3C2",
" +	c #D0D0FD",
".+	c #BEBEFE",
"++	c #CDCDFE",
"@+	c #ECECFB",
"#+	c #FBFBEA",
"$+	c #FCF795",
"%+	c #8F6030",
"&+	c #714D22",
"*+	c #5F3D23",
"=+	c #C0A546",
"-+	c #C2B034",
";+	c #060303",
">+	c #645126",
",+	c #F4F0DA",
"'+	c #D6D6FD",
")+	c #C7C7FD",
"!+	c #E5E5FC",
"~+	c #F0F0F9",
"{+	c #FCFBDF",
"]+	c #FCF390",
"^+	c #DBBD45",
"/+	c #1F120D",
"(+	c #100A06",
"_+	c #673313",
":+	c #77643A",
"<+	c #F2F1ED",
"[+	c #D0D0FA",
"}+	c #EEEEEB",
"|+	c #F5F1C0",
"1+	c #FCF9C0",
"2+	c #FDF9B2",
"3+	c #F9EA7D",
"4+	c #A17331",
"5+	c #432519",
"6+	c #070509",
"7+	c #211C0B",
"8+	c #DED79F",
"9+	c #EEEEF9",
"0+	c #D1D1FE",
"a+	c #EEEEEC",
"b+	c #F5F1C1",
"c+	c #FCF9C1",
"d+	c #FDF9B3",
"e+	c #F9EB7E",
"f+	c #A27432",
"g+	c #442619",
"h+	c #080509",
"i+	c #201B0A",
"j+	c #DDD69F",
"k+	c #D0D0FE",
"l+	c #FCF391",
"m+	c #DBBD46",
"n+	c #20120D",
"o+	c #110A06",
"p+	c #683412",
"q+	c #776339",
"r+	c #F2F1EC",
"s+	c #906130",
"t+	c #734E22",
"u+	c #603E23",
"v+	c #C1A747",
"w+	c #C2B035",
"x+	c #F9EF9C",
"y+	c #F9EA8B",
"z+	c #F9F1A0",
"A+	c #EDE481",
"B+	c #402A16",
"C+	c #755A2D",
"D+	c #F2F2F7",
"E+	c #F8F8F3",
"F+	c #A68145",
"G+	c #2B1C0E",
"H+	c #312110",
"I+	c #EEE594",
"J+	c #3F2914",
"K+	c #080404",
"L+	c #54401A",
"M+	c #543A21",
"N+	c #E2C372",
"O+	c #DADAFD",
"P+	c #F8F0BE",
"Q+	c #DFB867",
"R+	c #EFE481",
"S+	c #BFA84F",
"T+	c #77531B",
"U+	c #6E4E1B",
"V+	c #C1AC52",
"W+	c #EADD95",
"X+	c #F9F3B1",
"Y+	c #F4E6A7",
"Z+	c #F5F4F3",
"`+	c #030202",
" @	c #71522C",
".@	c #FAF8DD",
"+@	c #E9CD6A",
"@@	c #81562E",
"#@	c #EAD26C",
"$@	c #FAEE99",
"%@	c #F5F1CA",
"&@	c #E6E5F4",
"*@	c #CECEFC",
"  . + @ # # $ % & + * = - ; > , ' ) ! ~ { ] ^ / ! + ( & _ : < { ",
"= [ - } % | | } 1 = 2 3 4 ] 5 6   7 [ ' 8   ' 2 5 9 ; _ 0 a { b ",
"4 c * _ 1 6 1 d e 4 f g c 6 h i * j k h l i m n = 6 ] ] ' i h + ",
"o _ 0 0 ^ * . p > q c g r 0 i l 8 s t s u 7 v [ ! [ 5 5 8 w 3 + ",
"% ( + 8 g 0 4 q 5 5 c [ x / r y z A B C D E F l G h f b k b c   ",
"H a c 8 I [ = J ! 8 * r K L l M N O P Q R S T U A n g M V 6 W ; ",
"| - ^ 5 / k i ' 3 7 8 n X Y A E Z `  ...+.@.#.$.U X %.j 0 5 ] ; ",
"& &.> , c n M h h 7 L k *.O Z $.=.-.;.>.,.'.).!.D ~.*.m r n 6 9 ",
"e ; a {.c ! G K l k ].u N ^./.#.(._.:.<.[.}.|.1.2.3.O u 7 3 5 5 ",
"' ] { / V V G 4.A 5.Y $.D /.6.7.8.9.0.a.b.c.d.e.f.g.h.i.g 8 [ 2 ",
"n f = 3 l 7 k u T D j.k.l.m.n.o.p.q.r.s.t.s.u.v.w.x.y.Y z.L 2 * ",
"* 2 [ r 2 U u A.` B.C.D.E.F.G.H.I.t.t.t.t.t.t.t.J.K.L.M.A l ! = ",
"6 ! x K M N.O.P.Q.R.S.T.U.V.W.X.t.t.t.t.t.t.t.t.Y.Z.`. +L ) / / ",
"V V l .+].++P @+#+$+%+&+*+=+-+;+t.t.t.t.t.t.t.t.t.>+,+'+E *.[ 3 ",
"* 7 u )+/.!+~+{+]+^+/+t.t.(+_+t.t.t.t.t.t.t.t.t.t.:+<+P.U l 8 f ",
"m M [+}+|+1+2+3+4+5+t.t.t.t.6+t.t.t.t.t.t.t.t.t.7+8+9+0+.+u M 2 ",
"m M [+a+b+c+d+e+f+g+t.t.t.t.h+t.t.t.t.t.t.t.t.t.i+j+9+k+.+u M 2 ",
"* 7 u )+/.!+~+{+l+m+n+t.t.o+p+t.t.t.t.t.t.t.t.t.t.q+r+j.U l 8 f ",
"V V l .+].++P @+#+$+s+t+u+v+w+;+t.t.t.t.t.t.t.t.t.>+,+'+E *.[ 3 ",
"6 ! x K M N.O.P.Q.R.x+y+z+V.A+B+t.t.t.t.t.t.t.t.Y.C+`. +L 7 / / ",
"* 2 [ r 2 U u A.` B.D+D.E+F.G.F+G+t.t.t.t.t.t.t.H+I+L.M.A l ! = ",
"n f = 3 l l k u T D O.k.l.m.n.o.p.J+K+s.t.s.r.L+M+N+y.Y z.L l * ",
"' ] { / V V G 4.A 5.Y $.M.O+6.P+Q+R+S+T+b.U+V+W+X+Y+h.i.g 8 / 2 ",
"e ; a {.c ! G K 2 k ].u N ^./.#.Z+_.:.<.`+ @|.1.2.3.O u 7 3 5 5 ",
"& &.> , c n M h h 7 L k y O Z $.` 6..@+@@@#@).!.D ~.*.m r n 6 9 ",
"| - ^ 5 / k i ' 3 7 8 n X Y A E Z `  ...+.$@#.$.U X %.j 0 5 ] ; ",
"H a c 8 I [ = J ! 8 * r K L l M N O P Q %@&@T z.A n g M V 6 W ; ",
"% ( + 8 j 0 4 q 6 5 c [ x / r y M A B *@D E F l k h f b k b c   ",
"o - 0 0 ^ * . p > q c g r 0 i l 8 s t s u 7 v [ ! [ 5 5 8 w 3 + ",
"4   * _ 1 6 1 d e 4 f g c 6 h i * j k h 2 i m n = 6 ] ] ' i h ] ",
"= / - } % | | } < = 2 3 4 ] 6 6   7 [ ' 8   ' 2 5 9 ; _ 0 a { b ",
"  . + @ # # $ % & + * = - ; > , ' k ! ~ { ] ^ / ! + ( & _ : < ^ "};
